<svg width="220" height="159" viewBox="0 0 220 159" fill="none" xmlns="http://www.w3.org/2000/svg">
<path opacity="0.45" d="M109.844 158.945C170.37 158.945 219.437 151.61 219.437 142.563C219.437 133.516 170.37 126.182 109.844 126.182C49.3179 126.182 0.251709 133.516 0.251709 142.563C0.251709 151.61 49.3179 158.945 109.844 158.945Z" fill="#8C8C8C"/>
<path d="M165.302 13.5054H64.4482C62.2391 13.5054 60.4482 15.2962 60.4482 17.5054V137.345C60.4482 139.554 62.2391 141.345 64.4482 141.345H165.302C167.511 141.345 169.302 139.554 169.302 137.345V17.5054C169.302 15.2962 167.511 13.5054 165.302 13.5054Z" fill="#C9C9C9"/>
<path opacity="0.08" d="M160.663 30.7363H79.9209C78.8163 30.7363 77.9209 31.6318 77.9209 32.7363V131.083C77.9209 132.188 78.8163 133.083 79.9209 133.083H160.663C161.767 133.083 162.663 132.188 162.663 131.083V32.7363C162.663 31.6318 161.767 30.7363 160.663 30.7363Z" fill="black"/>
<path d="M155.243 24.8408H74.501C73.3964 24.8408 72.501 25.7363 72.501 26.8408V125.188C72.501 126.292 73.3964 127.188 74.501 127.188H155.243C156.347 127.188 157.243 126.292 157.243 125.188V26.8408C157.243 25.7363 156.347 24.8408 155.243 24.8408Z" fill="white"/>
<path d="M94.3165 27.1592V4.39361C94.3165 2.41797 92.7149 0.816406 90.7393 0.816406C88.7637 0.816406 87.1621 2.41798 87.1621 4.39361V27.1592C87.1621 29.1348 88.7637 30.7364 90.7393 30.7364C92.7149 30.7364 94.3165 29.1348 94.3165 27.1592Z" fill="#F2F2F2"/>
<path d="M142.71 27.1592V4.3936C142.71 2.41797 141.108 0.816406 139.133 0.816406C137.157 0.816406 135.556 2.41797 135.556 4.3936V27.1592C135.556 29.1348 137.157 30.7364 139.133 30.7364C141.108 30.7364 142.71 29.1348 142.71 27.1592Z" fill="#F2F2F2"/>
<path d="M145.168 40.4805H131.099C129.995 40.4805 129.099 41.3759 129.099 42.4805V56.6161C129.099 57.7207 129.995 58.6161 131.099 58.6161H145.168C146.273 58.6161 147.168 57.7207 147.168 56.6161V42.4805C147.168 41.3759 146.273 40.4805 145.168 40.4805Z" fill="#FFD200"/>
<path d="M145.168 66.9463H131.099C129.995 66.9463 129.099 67.8417 129.099 68.9463V83.0819C129.099 84.1865 129.995 85.0819 131.099 85.0819H145.168C146.273 85.0819 147.168 84.1865 147.168 83.0819V68.9463C147.168 67.8417 146.273 66.9463 145.168 66.9463Z" fill="#FFD200"/>
<path d="M145.168 93.4185H131.099C129.995 93.4185 129.099 94.3139 129.099 95.4185V109.554C129.099 110.659 129.995 111.554 131.099 111.554H145.168C146.273 111.554 147.168 110.659 147.168 109.554V95.4185C147.168 94.3139 146.273 93.4185 145.168 93.4185Z" fill="#FFD200"/>
<path d="M116.44 45.6963H91.6242C89.4967 45.6963 87.772 47.421 87.772 49.5485C87.772 51.676 89.4967 53.4007 91.6242 53.4007H116.44C118.567 53.4007 120.292 51.676 120.292 49.5485C120.292 47.421 118.567 45.6963 116.44 45.6963Z" fill="#FF3366"/>
<path opacity="0.44" d="M116.44 72.1621H91.6242C89.4967 72.1621 87.772 73.8868 87.772 76.0143C87.772 78.1418 89.4967 79.8665 91.6242 79.8665H116.44C118.567 79.8665 120.292 78.1418 120.292 76.0143C120.292 73.8868 118.567 72.1621 116.44 72.1621Z" fill="#FF3366"/>
<path opacity="0.13" d="M116.44 98.6274H91.6242C89.4967 98.6274 87.772 100.352 87.772 102.48C87.772 104.607 89.4967 106.332 91.6242 106.332H116.44C118.567 106.332 120.292 104.607 120.292 102.48C120.292 100.352 118.567 98.6274 116.44 98.6274Z" fill="#FF3366"/>
<path d="M133.164 49.5451L136.775 54.1963L142.873 45.6963" stroke="white" stroke-width="3" stroke-miterlimit="10"/>
<path d="M133.164 75.6164L136.775 80.2676L142.873 71.7676" stroke="white" stroke-width="3" stroke-miterlimit="10"/>
<path d="M133.164 101.688L136.775 106.339L142.873 97.8389" stroke="white" stroke-width="3" stroke-miterlimit="10"/>
</svg>
