<svg width="44" height="48" viewBox="0 0 44 48" fill="none" xmlns="http://www.w3.org/2000/svg">
<path d="M30.6925 45.8332V37.7707C30.7707 36.7773 30.6365 35.7786 30.2988 34.8411C29.9612 33.9035 29.4278 33.0486 28.7342 32.3332C35.2759 31.604 42.1509 29.1248 42.1509 17.7498C42.1503 14.8411 41.0315 12.044 39.0259 9.93733C39.9756 7.39255 39.9084 4.57972 38.8384 2.08316C38.8384 2.08316 36.38 1.354 30.6925 5.1665C25.9176 3.87237 20.8842 3.87237 16.1092 5.1665C10.4217 1.354 7.96338 2.08316 7.96338 2.08316C6.89333 4.57972 6.82618 7.39255 7.77588 9.93733C5.75531 12.0596 4.6353 14.882 4.65088 17.8123C4.65088 29.104 11.5259 31.5832 18.0675 32.3957C17.3821 33.1039 16.8535 33.9486 16.5161 34.8747C16.1787 35.8007 16.0401 36.7875 16.1092 37.7707V45.8332M16.1092 39.5832C5.69255 42.7082 5.69255 34.3748 1.52588 33.3332L16.1092 39.5832Z" stroke="#FF3366" stroke-width="3" stroke-linecap="round" stroke-linejoin="round"/>
</svg>
