<svg width="19" height="19" viewBox="0 0 19 19" fill="none" xmlns="http://www.w3.org/2000/svg">
<rect width="19" height="19" rx="3" fill="#F0DB4F"/>
<path d="M10.9144 9.25783V14.0378C10.9144 14.7778 10.7044 15.3478 10.2844 15.7478C9.87103 16.1478 9.31103 16.3478 8.60437 16.3478C7.86437 16.3478 7.27103 16.1378 6.82437 15.7178C6.3777 15.2978 6.15437 14.7012 6.15437 13.9278H7.85437C7.85437 14.2212 7.91437 14.4445 8.03437 14.5978C8.15437 14.7445 8.3277 14.8178 8.55437 14.8178C8.76103 14.8178 8.92104 14.7512 9.03437 14.6178C9.1477 14.4845 9.20437 14.2912 9.20437 14.0378V9.25783H10.9144ZM14.3356 16.3478C13.8223 16.3478 13.3623 16.2645 12.9556 16.0978C12.549 15.9312 12.2223 15.6845 11.9756 15.3578C11.7356 15.0312 11.609 14.6378 11.5956 14.1778H13.4156C13.4423 14.4378 13.5323 14.6378 13.6856 14.7778C13.839 14.9112 14.039 14.9778 14.2856 14.9778C14.539 14.9778 14.739 14.9212 14.8856 14.8078C15.0323 14.6878 15.1056 14.5245 15.1056 14.3178C15.1056 14.1445 15.0456 14.0012 14.9256 13.8878C14.8123 13.7745 14.669 13.6812 14.4956 13.6078C14.329 13.5345 14.089 13.4512 13.7756 13.3578C13.3223 13.2178 12.9523 13.0778 12.6656 12.9378C12.379 12.7978 12.1323 12.5912 11.9256 12.3178C11.719 12.0445 11.6156 11.6878 11.6156 11.2478C11.6156 10.5945 11.8523 10.0845 12.3256 9.71783C12.799 9.3445 13.4156 9.15783 14.1756 9.15783C14.949 9.15783 15.5723 9.3445 16.0456 9.71783C16.519 10.0845 16.7723 10.5978 16.8056 11.2578H14.9556C14.9423 11.0312 14.859 10.8545 14.7056 10.7278C14.5523 10.5945 14.3556 10.5278 14.1156 10.5278C13.909 10.5278 13.7423 10.5845 13.6156 10.6978C13.489 10.8045 13.4256 10.9612 13.4256 11.1678C13.4256 11.3945 13.5323 11.5712 13.7456 11.6978C13.959 11.8245 14.2923 11.9612 14.7456 12.1078C15.199 12.2612 15.5656 12.4078 15.8456 12.5478C16.1323 12.6878 16.379 12.8912 16.5856 13.1578C16.7923 13.4245 16.8956 13.7678 16.8956 14.1878C16.8956 14.5878 16.7923 14.9512 16.5856 15.2778C16.3856 15.6045 16.0923 15.8645 15.7056 16.0578C15.319 16.2512 14.8623 16.3478 14.3356 16.3478Z" fill="#212E3C"/>
</svg>
