<svg width="58" height="50" viewBox="0 0 58 50" fill="none" xmlns="http://www.w3.org/2000/svg">
<path d="M55.3561 1.09941C54.7038 0.551411 53.9145 0.191369 53.073 0.0579188C52.2315 -0.0755314 51.3696 0.0226466 50.5797 0.341919L2.37349 19.637C1.67078 19.9289 1.07031 20.4225 0.647877 21.0554C0.225446 21.6883 0 22.4321 0 23.193C0 23.954 0.225446 24.6978 0.647877 25.3307C1.07031 25.9636 1.67078 26.4572 2.37349 26.7491L5.48764 28.0326C6.0011 28.2498 6.57977 28.2544 7.09659 28.0453C7.6134 27.8362 8.02611 27.4305 8.24409 26.9174C8.35102 26.6619 8.40645 26.3877 8.40719 26.1107C8.40793 25.8337 8.35397 25.5593 8.2484 25.3032C8.14283 25.0471 7.98774 24.8144 7.79201 24.6184C7.59629 24.4224 7.36378 24.2669 7.10784 24.161L4.79327 23.2141L52.1578 4.27669C52.2306 4.23204 52.3144 4.20841 52.3998 4.20841C52.4852 4.20841 52.569 4.23204 52.6418 4.27669C52.7105 4.33501 52.7623 4.41063 52.7919 4.49573C52.8215 4.58083 52.8278 4.6723 52.8101 4.76065L44.162 45.1183C44.1337 45.2621 44.0683 45.3959 43.9723 45.5066C43.8764 45.6173 43.7532 45.7011 43.6149 45.7496C43.4793 45.8034 43.3317 45.8201 43.1875 45.7979C43.0432 45.7757 42.9075 45.7155 42.7943 45.6233L25.9611 32.4934L42.4366 15.8495C42.7886 15.4844 42.9968 15.0044 43.023 14.4979C43.0492 13.9915 42.8915 13.4926 42.5791 13.0931C42.2667 12.6936 41.8205 12.4204 41.3226 12.3237C40.8248 12.2271 40.3088 12.3135 39.8695 12.5671L15.7138 26.8753C15.4455 26.9966 15.2057 27.1728 15.0098 27.3926C14.8138 27.6123 14.6662 27.8708 14.5765 28.1512C14.4867 28.4316 14.4568 28.7277 14.4886 29.0204C14.5205 29.3131 14.6134 29.5958 14.7614 29.8503C14.9093 30.1049 15.1091 30.3255 15.3477 30.498C15.5863 30.6705 15.8584 30.791 16.1465 30.8517C16.4346 30.9124 16.7323 30.912 17.0202 30.8504C17.3081 30.7889 17.5799 30.6676 17.818 30.4945L27.9811 24.4976L23.0363 29.5266C22.5839 29.9516 22.2312 30.4714 22.0034 31.0488C21.7755 31.6262 21.6782 32.2468 21.7185 32.8662C21.7587 33.4856 21.9354 34.0884 22.236 34.6315C22.5366 35.1746 22.9536 35.6444 23.4571 36.0074L40.2904 48.9479C41.1764 49.6316 42.2644 50.0017 43.3835 50C43.9794 49.9957 44.5702 49.8889 45.1299 49.6844C45.9337 49.3958 46.65 48.9057 47.21 48.2609C47.77 47.6161 48.1551 46.8384 48.3283 46.0021L56.9132 5.68647C57.0954 4.85257 57.0467 3.98476 56.7724 3.17648C56.498 2.3682 56.0084 1.65007 55.3561 1.09941Z" fill="#FF3366"/>
</svg>
