<svg width="50" height="50" viewBox="0 0 50 50" fill="none" xmlns="http://www.w3.org/2000/svg">
<path d="M46.9585 13.2427C46.711 12.2638 46.207 11.3668 45.4973 10.6425C44.7877 9.91814 43.8975 9.39203 42.9168 9.11731C39.3335 8.25098 25.0001 8.25098 25.0001 8.25098C25.0001 8.25098 10.6668 8.25098 7.08347 9.19982C6.10273 9.47454 5.21259 10.0006 4.50294 10.725C3.79329 11.4494 3.28928 12.3463 3.0418 13.3252C2.386 16.9258 2.06521 20.5783 2.08347 24.2369C2.06009 27.9231 2.3809 31.6035 3.0418 35.2312C3.31463 36.1797 3.82994 37.0425 4.53793 37.7363C5.24593 38.43 6.12268 38.9313 7.08347 39.1916C10.6668 40.1404 25.0001 40.1404 25.0001 40.1404C25.0001 40.1404 39.3335 40.1404 42.9168 39.1916C43.8975 38.9168 44.7877 38.3907 45.4973 37.6664C46.207 36.942 46.711 36.0451 46.9585 35.0662C47.6092 31.4927 47.93 27.868 47.9168 24.2369C47.9402 20.5508 47.6194 16.8704 46.9585 13.2427V13.2427Z" stroke="#FF3366" stroke-width="2" stroke-linecap="round" stroke-linejoin="round"/>
<path d="M20.3125 30.9818L32.2917 24.2367L20.3125 17.4917V30.9818Z" fill="#FF3366" stroke="#FF3366" stroke-width="2" stroke-linecap="round" stroke-linejoin="round"/>
</svg>
