<svg width="457" height="77" viewBox="0 0 457 77" fill="none" xmlns="http://www.w3.org/2000/svg">
<path d="M113.586 14.3488V58.3023H103.577V40.8605H87.0094V58.3023H77V14.3488H87.0094V31.093H103.577V14.3488H113.586Z" fill="white"/>
<path d="M131.561 25.5116C133.448 25.5116 135.196 25.8372 136.807 26.4884C138.418 27.1395 139.798 28.0698 140.949 29.2791C142.145 30.4419 143.066 31.8372 143.71 33.4651C144.354 35.093 144.676 36.8605 144.676 38.7674V58.3023H137.773L136.393 55.1628C135.611 55.814 134.736 56.3953 133.77 56.907C132.941 57.3721 131.952 57.7907 130.801 58.1628C129.697 58.4884 128.454 58.6512 127.074 58.6512C123.622 58.6512 120.976 57.814 119.135 56.1395C117.295 54.4186 116.374 52.2326 116.374 49.5814C116.374 48 116.673 46.5581 117.272 45.2558C117.916 43.907 118.974 42.7674 120.447 41.8372C121.92 40.8605 123.852 40.1163 126.245 39.6047C128.685 39.0465 131.722 38.7674 135.357 38.7674C135.357 37.186 134.966 35.9767 134.184 35.1395C133.402 34.3023 132.412 33.8837 131.216 33.8837C130.341 33.8837 129.628 34.0698 129.076 34.4419C128.569 34.7674 128.155 35.1163 127.833 35.4884C127.465 35.9535 127.212 36.4651 127.074 37.0233L117.755 36.3256C118.031 34.7442 118.514 33.3023 119.204 32C119.895 30.6512 120.792 29.5116 121.897 28.5814C123.047 27.6047 124.428 26.8605 126.038 26.3488C127.649 25.7907 129.49 25.5116 131.561 25.5116ZM129.49 51.6744C131.239 51.6744 132.642 51.1395 133.701 50.0698C134.805 48.9535 135.357 47.5116 135.357 45.7442V44.3488C133.379 44.3488 131.745 44.4651 130.456 44.6977C129.214 44.8837 128.224 45.1628 127.488 45.5349C126.798 45.907 126.314 46.3488 126.038 46.8605C125.808 47.3721 125.693 47.9302 125.693 48.5349C125.693 49.4186 126.015 50.1628 126.66 50.7674C127.35 51.3721 128.293 51.6744 129.49 51.6744Z" fill="white"/>
<path d="M162.649 25.5116C164.213 25.5116 165.64 25.6977 166.928 26.0698C168.217 26.3954 169.368 26.8605 170.38 27.4651C171.392 28.0698 172.267 28.7442 173.003 29.4884C173.785 30.2326 174.453 31 175.005 31.7907C176.294 33.6512 177.237 35.7442 177.835 38.0698L168.516 38.7674C168.194 37.9302 167.78 37.186 167.274 36.5349C166.813 35.9767 166.192 35.4651 165.41 35C164.673 34.4884 163.753 34.2326 162.649 34.2326C160.716 34.2326 159.082 34.9535 157.747 36.3954C156.413 37.8372 155.746 39.7907 155.746 42.2558C155.746 44.7209 156.413 46.6744 157.747 48.1163C159.082 49.5581 160.716 50.2791 162.649 50.2791C163.753 50.2791 164.673 50.0465 165.41 49.5814C166.192 49.1163 166.813 48.6047 167.274 48.0465C167.78 47.3954 168.194 46.6279 168.516 45.7442L177.835 46.4419C177.237 48.7674 176.294 50.8605 175.005 52.7209C174.453 53.5116 173.785 54.2791 173.003 55.0233C172.267 55.7674 171.392 56.4419 170.38 57.0465C169.368 57.6512 168.217 58.1163 166.928 58.4419C165.64 58.814 164.213 59 162.649 59C160.394 59 158.277 58.5814 156.298 57.7442C154.365 56.8605 152.662 55.6744 151.19 54.186C149.717 52.6512 148.543 50.8837 147.669 48.8837C146.841 46.8372 146.427 44.6279 146.427 42.2558C146.427 39.8837 146.841 37.6977 147.669 35.6977C148.543 33.6512 149.717 31.8837 151.19 30.3954C152.662 28.8605 154.365 27.6744 156.298 26.8372C158.277 25.9535 160.394 25.5116 162.649 25.5116Z" fill="white"/>
<path d="M198.528 58.3023L188.864 44V58.3023H179.545V14.3488H188.864V39.1163L197.493 26.2093H208.192L197.493 41.5581L209.228 58.3023H198.528Z" fill="white"/>
<path d="M214.041 34.9302H209.209V26.907H211.625C214.156 26.907 215.422 25.6279 215.422 23.0698V18.5349H223.36V26.2093H229.918V34.9302H223.36V45.3954C223.36 46.7907 223.751 47.907 224.534 48.7442C225.316 49.5349 226.305 49.9302 227.502 49.9302C227.87 49.9302 228.192 49.9302 228.468 49.9302C228.744 49.8837 228.997 49.8372 229.228 49.7907C229.458 49.7442 229.688 49.6744 229.918 49.5814V57.9535C229.55 58.093 229.136 58.2093 228.675 58.3023C227.755 58.5349 226.673 58.6512 225.431 58.6512C221.795 58.6512 218.988 57.6512 217.009 55.6512C215.03 53.6047 214.041 50.6512 214.041 46.7907V34.9302Z" fill="white"/>
<path d="M234.421 42.2558C234.421 39.8837 234.835 37.6977 235.664 35.6977C236.538 33.6512 237.711 31.8837 239.184 30.3954C240.657 28.8605 242.359 27.6744 244.292 26.8372C246.271 25.9535 248.388 25.5116 250.643 25.5116C252.898 25.5116 254.992 25.9535 256.925 26.8372C258.904 27.6744 260.629 28.8605 262.102 30.3954C263.575 31.8837 264.725 33.6512 265.554 35.6977C266.428 37.6977 266.865 39.8837 266.865 42.2558C266.865 44.6279 266.428 46.8372 265.554 48.8837C264.725 50.8837 263.575 52.6512 262.102 54.186C260.629 55.6744 258.904 56.8605 256.925 57.7442C254.992 58.5814 252.898 59 250.643 59C248.388 59 246.271 58.5814 244.292 57.7442C242.359 56.8605 240.657 55.6744 239.184 54.186C237.711 52.6512 236.538 50.8837 235.664 48.8837C234.835 46.8372 234.421 44.6279 234.421 42.2558ZM257.546 42.2558C257.546 39.7907 256.879 37.8372 255.544 36.3954C254.21 34.9535 252.576 34.2326 250.643 34.2326C248.71 34.2326 247.077 34.9535 245.742 36.3954C244.407 37.8372 243.74 39.7907 243.74 42.2558C243.74 44.7209 244.407 46.6744 245.742 48.1163C247.077 49.5581 248.71 50.2791 250.643 50.2791C252.576 50.2791 254.21 49.5581 255.544 48.1163C256.879 46.6744 257.546 44.7209 257.546 42.2558Z" fill="white"/>
<path d="M286.212 58.6512C284.832 58.6512 283.589 58.4884 282.485 58.1628C281.38 57.7907 280.437 57.3721 279.655 56.907C278.734 56.3953 277.929 55.814 277.239 55.1628L275.858 58.3023H268.955V14.3488H278.274V28.6512C278.872 28.1395 279.586 27.6744 280.414 27.2558C281.104 26.8837 281.933 26.5581 282.899 26.2791C283.911 26 285.016 25.8605 286.212 25.8605C288.191 25.8605 290.078 26.2791 291.873 27.1163C293.668 27.907 295.232 29.0465 296.567 30.5349C297.948 31.9767 299.029 33.6977 299.811 35.6977C300.64 37.6977 301.054 39.8837 301.054 42.2558C301.054 44.6279 300.64 46.814 299.811 48.814C299.029 50.814 297.948 52.5581 296.567 54.0465C295.232 55.4884 293.668 56.6279 291.873 57.4651C290.078 58.2558 288.191 58.6512 286.212 58.6512ZM291.735 42.2558C291.735 39.9767 291.068 38.1395 289.733 36.7442C288.398 35.3023 286.765 34.5814 284.832 34.5814C282.899 34.5814 281.265 35.3023 279.931 36.7442C278.596 38.1395 277.929 39.9767 277.929 42.2558C277.929 44.5349 278.596 46.3954 279.931 47.8372C281.265 49.2326 282.899 49.9302 284.832 49.9302C286.765 49.9302 288.398 49.2326 289.733 47.8372C291.068 46.3954 291.735 44.5349 291.735 42.2558Z" fill="white"/>
<path d="M332.457 48.8837C332.043 50.186 331.422 51.4419 330.593 52.6512C329.765 53.8605 328.73 54.9535 327.487 55.9302C326.245 56.8605 324.795 57.6047 323.138 58.1628C321.528 58.7209 319.687 59 317.616 59C315.453 59 313.405 58.5814 311.472 57.7442C309.585 56.8605 307.906 55.6744 306.433 54.186C305.006 52.6512 303.856 50.8837 302.981 48.8837C302.153 46.8372 301.739 44.6279 301.739 42.2558C301.739 39.8837 302.153 37.6977 302.981 35.6977C303.856 33.6512 305.029 31.8837 306.502 30.3954C307.975 28.8605 309.677 27.6744 311.61 26.8372C313.589 25.9535 315.706 25.5116 317.961 25.5116C320.124 25.5116 322.149 25.907 324.036 26.6977C325.922 27.4884 327.556 28.6279 328.937 30.1163C330.363 31.5581 331.468 33.3256 332.25 35.4186C333.079 37.4651 333.493 39.7442 333.493 42.2558C333.493 42.6279 333.47 43 333.424 43.3721C333.378 43.6977 333.332 44.0233 333.286 44.3488C333.24 44.7209 333.194 45.0698 333.148 45.3954H311.403C311.771 46.6047 312.508 47.7209 313.612 48.7442C314.763 49.7674 316.212 50.2791 317.961 50.2791C318.835 50.2791 319.572 50.1861 320.17 50C320.814 49.7674 321.32 49.5116 321.689 49.2326C322.149 48.9535 322.517 48.6047 322.793 48.186L332.457 48.8837ZM317.961 34.2326C316.212 34.2326 314.763 34.7674 313.612 35.8372C312.508 36.8605 311.771 38.0698 311.403 39.4651H324.519C324.151 38.0698 323.391 36.8605 322.241 35.8372C321.136 34.7674 319.71 34.2326 317.961 34.2326Z" fill="white"/>
<path d="M351.071 25.8605C351.485 25.8605 351.853 25.8837 352.176 25.9302C352.544 25.9767 352.843 26.0233 353.073 26.0698C353.349 26.1163 353.602 26.1628 353.832 26.2093V35.9767C353.556 35.8837 353.234 35.7674 352.866 35.6279C352.544 35.5349 352.176 35.4651 351.761 35.4186C351.347 35.3256 350.887 35.2791 350.381 35.2791C348.632 35.2791 347.205 35.8605 346.101 37.0233C345.043 38.186 344.513 39.814 344.513 41.907V58.3023H335.194V26.2093H342.097L343.478 29.6977C344.03 29 344.697 28.3721 345.48 27.814C346.124 27.3023 346.906 26.8605 347.827 26.4884C348.793 26.0698 349.875 25.8605 351.071 25.8605Z" fill="white"/>
<path d="M359.328 25.8605C359.328 22 360.317 19.0698 362.296 17.0698C364.275 15.0233 367.082 14 370.718 14C371.362 14 371.96 14.0465 372.513 14.1395C373.065 14.186 373.548 14.2558 373.962 14.3488C374.422 14.4884 374.837 14.6047 375.205 14.6977V23.0698C374.975 23.0233 374.745 22.9767 374.514 22.9302C374.284 22.8837 374.031 22.8372 373.755 22.7907C373.479 22.7442 373.157 22.7209 372.789 22.7209C371.592 22.7209 370.603 23.1395 369.82 23.9767C369.038 24.7674 368.647 25.8605 368.647 27.2558V27.6047H375.205V36.3256H368.647V58.3023H359.328V36.3256H355.186V27.6047H359.328V25.8605Z" fill="white"/>
<path d="M407.646 48.8837C407.232 50.186 406.611 51.4419 405.782 52.6512C404.954 53.8605 403.919 54.9535 402.676 55.9302C401.433 56.8605 399.984 57.6047 398.327 58.1628C396.716 58.7209 394.876 59 392.805 59C390.642 59 388.594 58.5814 386.661 57.7442C384.774 56.8605 383.094 55.6744 381.622 54.186C380.195 52.6512 379.045 50.8837 378.17 48.8837C377.342 46.8372 376.928 44.6279 376.928 42.2558C376.928 39.8837 377.342 37.6977 378.17 35.6977C379.045 33.6512 380.218 31.8837 381.691 30.3954C383.164 28.8605 384.866 27.6744 386.799 26.8372C388.778 25.9535 390.895 25.5116 393.15 25.5116C395.313 25.5116 397.338 25.907 399.225 26.6977C401.111 27.4884 402.745 28.6279 404.126 30.1163C405.552 31.5581 406.657 33.3256 407.439 35.4186C408.267 37.4651 408.682 39.7442 408.682 42.2558C408.682 42.6279 408.659 43 408.613 43.3721C408.567 43.6977 408.521 44.0233 408.475 44.3488C408.429 44.7209 408.383 45.0698 408.336 45.3954H386.592C386.96 46.6047 387.696 47.7209 388.801 48.7442C389.951 49.7674 391.401 50.2791 393.15 50.2791C394.024 50.2791 394.761 50.1861 395.359 50C396.003 49.7674 396.509 49.5116 396.878 49.2326C397.338 48.9535 397.706 48.6047 397.982 48.186L407.646 48.8837ZM393.15 34.2326C391.401 34.2326 389.951 34.7674 388.801 35.8372C387.696 36.8605 386.96 38.0698 386.592 39.4651H399.708C399.34 38.0698 398.58 36.8605 397.43 35.8372C396.325 34.7674 394.899 34.2326 393.15 34.2326Z" fill="white"/>
<path d="M418.322 47.8372C418.506 48.907 418.943 49.7674 419.633 50.4186C420.323 51.0233 421.267 51.3256 422.463 51.3256C423.66 51.3256 424.58 51.0465 425.225 50.4884C425.915 49.8837 426.26 49.2326 426.26 48.5349C426.26 47.9767 425.846 47.5349 425.018 47.2093C424.235 46.8372 423.246 46.4884 422.049 46.1628C420.853 45.7907 419.541 45.3721 418.114 44.907C416.734 44.4419 415.445 43.8372 414.249 43.093C413.052 42.3023 412.04 41.2791 411.211 40.0233C410.429 38.7674 410.038 37.1861 410.038 35.2791C410.038 33.9767 410.314 32.7442 410.866 31.5814C411.419 30.3721 412.201 29.3256 413.213 28.4419C414.272 27.5581 415.537 26.8605 417.01 26.3488C418.529 25.7907 420.231 25.5116 422.118 25.5116C426.26 25.5116 429.412 26.4419 431.575 28.3023C433.738 30.1628 435.073 32.4884 435.579 35.2791L426.605 35.9767C426.421 35.2791 426.007 34.6512 425.363 34.093C424.718 33.4884 423.867 33.186 422.809 33.186C421.75 33.186 420.968 33.4186 420.462 33.8837C419.955 34.3488 419.702 34.9302 419.702 35.6279C419.702 36.2326 420.093 36.6977 420.876 37.0233C421.704 37.3488 422.716 37.6977 423.913 38.0698C425.11 38.3953 426.398 38.7907 427.779 39.2558C429.205 39.7209 430.517 40.3488 431.713 41.1395C432.91 41.8837 433.899 42.8837 434.682 44.1395C435.51 45.3953 435.924 46.9767 435.924 48.8837C435.924 50.186 435.625 51.4419 435.027 52.6512C434.475 53.8605 433.646 54.9535 432.542 55.9302C431.437 56.8605 430.08 57.6047 428.469 58.1628C426.904 58.7209 425.133 59 423.154 59C418.828 59 415.56 58.0465 413.351 56.1395C411.188 54.2326 409.854 51.6977 409.348 48.5349L418.322 47.8372Z" fill="white"/>
<path d="M441.123 34.9302H436.291V26.907H438.707C441.238 26.907 442.504 25.6279 442.504 23.0698V18.5349H450.442V26.2093H457V34.9302H450.442V45.3954C450.442 46.7907 450.833 47.907 451.616 48.7442C452.398 49.5349 453.387 49.9302 454.584 49.9302C454.952 49.9302 455.274 49.9302 455.55 49.9302C455.826 49.8837 456.08 49.8372 456.31 49.7907C456.54 49.7442 456.77 49.6744 457 49.5814V57.9535C456.632 58.093 456.218 58.2093 455.757 58.3023C454.837 58.5349 453.756 58.6512 452.513 58.6512C448.877 58.6512 446.07 57.6512 444.091 55.6512C442.112 53.6047 441.123 50.6512 441.123 46.7907V34.9302Z" fill="white"/>
<path d="M8 47C21 25 43.5 56 42 15" stroke="#F33363" stroke-width="8"/>
<path d="M8 14L8 64" stroke="#F33363" stroke-width="8"/>
<circle cx="41.5" cy="8.5" r="8.5" fill="#F33363"/>
<circle cx="41.5" cy="8.5" r="3.5" fill="white"/>
<circle cx="8.5" cy="8.5" r="8.5" fill="#F33363"/>
<circle cx="8.5" cy="8.5" r="3.5" fill="white"/>
<circle cx="8.5" cy="68.5" r="8.5" fill="#F33363"/>
<circle cx="8.5" cy="68.5" r="3.5" fill="white"/>
</svg>
