<svg width="336" height="370" viewBox="0 0 336 370" fill="none" xmlns="http://www.w3.org/2000/svg">
<path d="M216 43H18C16.8954 43 16 43.8954 16 45V203C16 204.105 16.8954 205 18 205H216C217.105 205 218 204.105 218 203V45C218 43.8954 217.105 43 216 43Z" fill="white"/>
<path d="M195.749 57.3855C197.797 57.3855 199.458 55.7322 199.458 53.6928C199.458 51.6533 197.797 50 195.749 50C193.701 50 192.04 51.6533 192.04 53.6928C192.04 55.7322 193.701 57.3855 195.749 57.3855Z" fill="#FFD955"/>
<path d="M206.179 57.3855C208.228 57.3855 209.888 55.7322 209.888 53.6928C209.888 51.6533 208.228 50 206.179 50C204.131 50 202.47 51.6533 202.47 53.6928C202.47 55.7322 204.131 57.3855 206.179 57.3855Z" fill="#FF3366"/>
<path d="M165.517 97H142.504C140.335 97 138.577 98.7581 138.577 100.927C138.577 103.096 140.335 104.854 142.504 104.854H165.517C167.686 104.854 169.444 103.096 169.444 100.927C169.444 98.7581 167.686 97 165.517 97Z" fill="#FFD955"/>
<path d="M91.9724 97H70.1695C68.0008 97 66.2427 98.7581 66.2427 100.927C66.2427 103.096 68.0008 104.854 70.1695 104.854H91.9724C94.1411 104.854 95.8992 103.096 95.8992 100.927C95.8992 98.7581 94.1411 97 91.9724 97Z" fill="#FFD955"/>
<path d="M126.731 97H104.928C102.759 97 101.001 98.7581 101.001 100.927C101.001 103.096 102.759 104.854 104.928 104.854H126.731C128.899 104.854 130.658 103.096 130.658 100.927C130.658 98.7581 128.899 97 126.731 97Z" fill="#FF3366"/>
<path d="M129.549 115H107.746C105.577 115 103.819 116.758 103.819 118.927C103.819 121.096 105.577 122.854 107.746 122.854H129.549C131.717 122.854 133.475 121.096 133.475 118.927C133.475 116.758 131.717 115 129.549 115Z" fill="#FFD955"/>
<path d="M91.9724 115H70.1695C68.0008 115 66.2427 116.758 66.2427 118.927C66.2427 121.096 68.0008 122.854 70.1695 122.854H91.9724C94.1411 122.854 95.8992 121.096 95.8992 118.927C95.8992 116.758 94.1411 115 91.9724 115Z" fill="#FF3366"/>
<path d="M149.277 133H127.474C125.305 133 123.547 134.758 123.547 136.927C123.547 139.096 125.305 140.854 127.474 140.854H149.277C151.445 140.854 153.203 139.096 153.203 136.927C153.203 134.758 151.445 133 149.277 133Z" fill="#FFD955"/>
<path d="M64.7297 133H42.9268C40.7581 133 39 134.758 39 136.927C39 139.096 40.7581 140.854 42.9268 140.854H64.7297C66.8984 140.854 68.6565 139.096 68.6565 136.927C68.6565 134.758 66.8984 133 64.7297 133Z" fill="#FF3366"/>
<path d="M111.333 133H75.8062C73.6375 133 71.8794 134.758 71.8794 136.927C71.8794 139.096 73.6375 140.854 75.8062 140.854H111.333C113.502 140.854 115.26 139.096 115.26 136.927C115.26 134.758 113.502 133 111.333 133Z" fill="#FF3366"/>
<path d="M242.165 137.187C242.165 137.187 245.02 130.72 248.886 131.985C252.752 133.251 256.182 150.12 242.548 149.236L242.165 137.187Z" fill="#FFC7B8"/>
<path d="M181.604 151H130.292C128.123 151 126.365 152.758 126.365 154.927C126.365 157.096 128.123 158.854 130.292 158.854H181.604C183.773 158.854 185.531 157.096 185.531 154.927C185.531 152.758 183.773 151 181.604 151Z" fill="#FFD955"/>
<path d="M78.4538 151H42.9268C40.7581 151 39 152.758 39 154.927C39 157.096 40.7581 158.854 42.9268 158.854H78.4538C80.6225 158.854 82.3806 157.096 82.3806 154.927C82.3806 152.758 80.6225 151 78.4538 151Z" fill="#FF3366"/>
<path d="M115.458 151H93.6548C91.4861 151 89.728 152.758 89.728 154.927C89.728 157.096 91.4861 158.854 93.6548 158.854H115.458C117.626 158.854 119.385 157.096 119.385 154.927C119.385 152.758 117.626 151 115.458 151Z" fill="#FF3366"/>
<path d="M64.7297 79H42.9268C40.7581 79 39 80.7581 39 82.9268C39 85.0955 40.7581 86.8536 42.9268 86.8536H64.7297C66.8984 86.8536 68.6565 85.0955 68.6565 82.9268C68.6565 80.7581 66.8984 79 64.7297 79Z" fill="#FF3366"/>
<path d="M111.333 79H75.8062C73.6375 79 71.8794 80.7581 71.8794 82.9268C71.8794 85.0955 73.6375 86.8536 75.8062 86.8536H111.333C113.502 86.8536 115.26 85.0955 115.26 82.9268C115.26 80.7581 113.502 79 111.333 79Z" fill="#FF3366"/>
<path d="M176.958 79H123.716C121.547 79 119.789 80.7581 119.789 82.9268C119.789 85.0955 121.547 86.8536 123.716 86.8536H176.958C179.127 86.8536 180.885 85.0955 180.885 82.9268C180.885 80.7581 179.127 79 176.958 79Z" fill="#FF3366"/>
<path d="M122.421 169H71.1089C68.9402 169 67.1821 170.758 67.1821 172.927C67.1821 175.096 68.9402 176.854 71.1089 176.854H122.421C124.59 176.854 126.348 175.096 126.348 172.927C126.348 170.758 124.59 169 122.421 169Z" fill="#FFD955"/>
<path d="M190.11 169H136.867C134.699 169 132.94 170.758 132.94 172.927C132.94 175.096 134.699 176.854 136.867 176.854H190.11C192.278 176.854 194.036 175.096 194.036 172.927C194.036 170.758 192.278 169 190.11 169Z" fill="#FF3366"/>
<path opacity="0.08" d="M204 112C204 112 179 128.5 194.432 146.97C218.332 175.575 208 196.5 191.716 205H233.216L230.535 153.68L204 112Z" fill="#B1B1B1"/>
<path d="M218.275 166.417L210.317 209.031H239.327L234.19 166.417H218.275Z" fill="#FFC7B8"/>
<path d="M207.844 128.622C207.844 128.622 201.697 172.692 222.558 176.645C243.418 180.598 246.274 128.622 246.274 128.622C246.274 128.622 249.635 112.724 238.09 102.391C226.545 92.0587 202.516 102.322 207.844 128.622Z" fill="#FFC7B8"/>
<path d="M207.34 136L205.54 131.185C204.231 127.687 202.686 124.279 200.916 120.982C197.799 115.164 195.029 105.921 204 99C216.321 89.4847 212 95.5 223.5 92C231.343 83.0292 245.254 93.3245 246.747 98.0821C248.239 102.84 260.5 107.5 255.337 116.009C253 126.5 251.868 136.215 239.811 134.495C229.243 130.355 216.092 121.126 214.744 123.303C214.744 123.303 211.276 128.548 207.34 136Z" fill="#0E0E0E"/>
<path d="M207.391 137.187C207.391 137.187 204.536 130.72 200.67 131.985C196.804 133.251 194.715 151.056 208.366 150.207L207.391 137.187Z" fill="#FFC7B8"/>
<path d="M161.863 357C161.863 357 112.277 214.513 215.859 203H239.335C239.335 203 338.62 220.95 289.217 353.994L161.863 357Z" fill="#FF3366"/>
<path d="M185.5 345L179.027 278.425C178.744 275.507 181.019 272.973 183.95 272.941L265.998 272.059C268.948 272.027 271.284 274.543 271.033 277.483L265.5 342.5V353.5L185.5 357V345Z" fill="#0E0E0E"/>
<path opacity="0.08" d="M216.846 174.149C216.846 174.149 225.553 179.35 232.518 173.733C232.518 173.733 233.005 186.892 215.105 183.511L216.846 174.149Z" fill="black"/>
<path d="M3 366.47L332.186 354" stroke="white" stroke-width="6" stroke-linecap="round"/>
<path d="M220 320V311C220 310.448 220.448 310 221 310H229.107C229.911 310 230.386 310.9 229.933 311.564L227.514 315.108C227.276 315.458 227.283 315.92 227.533 316.262L229.836 319.409C230.32 320.07 229.848 321 229.029 321H221C220.448 321 220 320.552 220 320Z" fill="white"/>
</svg>
