<svg width="130px" height="33px" viewBox="0 0 130 33" version="1.1" xmlns="http://www.w3.org/2000/svg"><title>Group 13</title><desc>Created with Sketch.</desc><g id="Welcome" stroke="none" stroke-width="1" fill="none" fill-rule="evenodd"><g id="HOME" transform="translate(-129.000000, -4456.000000)" fill="#FFFFFF"><g id="Group-13" transform="translate(129.000000, 4456.000000)"><path d="M56.0267895,20.3883819 C56.6874041,20.3883819 57.0116492,20.7084563 56.9996804,21.3604199 L56.9996804,24.0279621 C56.9996804,24.6799256 56.6754353,25 56.0267895,25 L42.9847043,25 C42.3242452,25 42,24.6799256 42,24.0279621 L42,8.97219138 C42,8.32007437 42.3242452,8 42.9847043,8 L47.3920135,8 C48.0526281,8 48.3768732,8.32007437 48.3768732,8.97219138 L48.3768732,20.3883819 L56.0267895,20.3883819 Z" id="Fill-1"></path><path d="M60.5646181,23.1286119 C58.8548207,21.7554843 58,19.7903275 58,17.2216504 L58,8.97078068 C58,8.31960993 58.3250968,8 58.9872907,8 L63.4063321,8 C64.0685259,8 64.3936227,8.31960993 64.3936227,8.97078068 L64.3936227,16.9020405 C64.3936227,19.0801684 65.5978524,19.9807758 67.9939999,19.9807758 C70.4141478,19.9807758 71.6182216,19.0801684 71.6182216,16.9020405 L71.6182216,8.97078068 C71.6182216,8.31960993 71.9434743,8 72.6056682,8 L77.0125535,8 C77.6747473,8 78,8.31960993 78,8.97078068 L78,17.2216504 C78,19.7903275 77.1450234,21.7554843 75.4352261,23.1286119 C73.7254288,24.5017395 71.2569683,25 68.0180003,25 C64.7548761,25 62.2745712,24.5017395 60.5646181,23.1286119" id="Fill-3"></path><path d="M98.1473279,8.02376657 C98.5461919,8.02376657 98.8043072,8.14213944 98.9216738,8.39099847 C99.0388885,8.63985749 98.9802811,8.91217642 98.7338569,9.22022188 L93.1031475,16.5177866 L98.7338569,23.8271579 C98.9919722,24.1352034 99.0622707,24.4076757 98.945056,24.6445747 C98.8276894,24.8814738 98.569726,25 98.1591708,25 L92.9742417,25 C92.4815451,25 92.0943721,24.8104807 91.8244139,24.4196356 L87.6953282,18.7923243 L86.2289296,18.7923243 L86.2289296,24.0286371 C86.2289296,24.6801479 85.912207,25 85.2670705,25 L80.9617073,25 C80.3165708,25 80,24.6801479 80,24.0286371 L80,8.98332281 C80,8.33181203 80.3165708,8.01180662 80.9617073,8.01180662 L85.2670705,8.01180662 C85.912207,8.01180662 86.2289296,8.33181203 86.2289296,8.98332281 L86.2289296,14.2314422 L87.6953282,14.2314422 L91.8244139,8.6042843 C92.0943721,8.21328583 92.4815451,8.01180662 92.9742417,8 L98.1591708,8 L98.1473279,8.02376657 Z" id="Fill-5"></path><path d="M107,8.97204672 L107,24.0279533 C107,24.6799227 106.694918,25 106.073346,25 L101.926654,25 C101.305082,25 101,24.6799227 101,24.0279533 L101,8.97204672 C101,8.31992382 101.305082,8 101.926654,8 L106.073346,8 C106.694918,8 107,8.31992382 107,8.97204672" id="Fill-7"></path><path d="M124.686528,8 L129.029639,8 C129.680631,8 130,8.32007726 130,8.97204672 L130,24.0281067 C130,24.6800762 129.680631,25 129.029639,25 L123.47936,25 C122.982308,25 122.579919,24.7985324 122.283986,24.3954437 L116.591713,16.5948263 L116.284139,16.5948263 L116.284139,24.0281067 C116.284139,24.6800762 115.964464,25 115.313625,25 L110.970361,25 C110.319522,25 110,24.6800762 110,24.0281067 L110,8.97204672 C110,8.32007726 110.319522,8 110.970361,8 L116.639044,8 C117.136096,8 117.526691,8.21343599 117.810523,8.64015452 L123.408287,16.8200773 L123.716168,16.8200773 L123.716168,8.97204672 C123.716168,8.32007726 124.03569,8 124.686528,8" id="Fill-9"></path><path d="M1.93349565,0 L30.8742199,0 C31.8752345,0 32.3764999,1.23005969 31.6685724,1.94966233 L21.9255859,14.739139 C21.1658034,15.8378854 21.1691391,17.3040623 21.9340768,18.3991098 L31.6685724,31.0503377 C32.3763483,31.7697862 31.8752345,33 30.8742199,33 L1.93349565,33 C0.870012393,33 0,32.1156393 0,31.0346171 L0,1.96538293 C0,0.884360668 0.870012393,0 1.93349565,0" id="Fill-11"></path></g></g></g></svg>
