<svg width="23" height="21" viewBox="0 0 23 21" fill="none" xmlns="http://www.w3.org/2000/svg">
<path d="M11.5 0C5.14625 0 0 4.8208 0 10.7664C0 15.5242 3.29475 19.5589 7.86312 20.9814C8.43812 21.0828 8.64896 20.7495 8.64896 20.4637C8.64896 20.2081 8.63937 19.5306 8.63458 18.6331C5.43567 19.2823 4.761 17.1887 4.761 17.1887C4.23775 15.9461 3.48162 15.6137 3.48162 15.6137C2.43992 14.9463 3.56212 14.96 3.56212 14.96C4.71692 15.0349 5.32354 16.0693 5.32354 16.0693C6.34896 17.7155 8.0155 17.2398 8.67292 16.965C8.77642 16.2684 9.07254 15.7945 9.40125 15.5252C6.84729 15.2558 4.163 14.33 4.163 10.2049C4.163 9.02987 4.60862 8.06936 5.34654 7.31611C5.21717 7.04402 4.82904 5.9493 5.44717 4.46654C5.44717 4.46654 6.41029 4.17802 8.60967 5.57039C9.52967 5.33118 10.5072 5.21249 11.4847 5.20701C12.4622 5.21249 13.4397 5.33118 14.3597 5.57039C16.5447 4.17802 17.5078 4.46654 17.5078 4.46654C18.1259 5.9493 17.7378 7.04402 17.6228 7.31611C18.3559 8.06936 18.8015 9.02987 18.8015 10.2049C18.8015 14.341 16.1134 15.2513 13.5547 15.516C13.9572 15.8392 14.3309 16.4994 14.3309 17.5083C14.3309 18.949 14.3165 20.1067 14.3165 20.4564C14.3165 20.7386 14.5178 21.0755 15.1072 20.9677C19.7081 19.5544 23 15.5169 23 10.7664C23 4.8208 17.8509 0 11.5 0Z" fill="#FAFAFA"/>
</svg>
