<svg width="21" height="21" viewBox="0 0 21 21" fill="none" xmlns="http://www.w3.org/2000/svg">
<path d="M14.4375 0H6.5625C2.93869 0 0 2.93869 0 6.5625V14.4375C0 18.0613 2.93869 21 6.5625 21H14.4375C18.0613 21 21 18.0613 21 14.4375V6.5625C21 2.93869 18.0613 0 14.4375 0ZM19.0313 14.4375C19.0313 16.9706 16.9706 19.0313 14.4375 19.0313H6.5625C4.02938 19.0313 1.96875 16.9706 1.96875 14.4375V6.5625C1.96875 4.02938 4.02938 1.96875 6.5625 1.96875H14.4375C16.9706 1.96875 19.0313 4.02938 19.0313 6.5625V14.4375Z" fill="#FAFAFA"/>
<path d="M10.5 5.25C7.60069 5.25 5.25 7.60069 5.25 10.5C5.25 13.3993 7.60069 15.75 10.5 15.75C13.3993 15.75 15.75 13.3993 15.75 10.5C15.75 7.60069 13.3993 5.25 10.5 5.25ZM10.5 13.7812C8.69137 13.7812 7.21875 12.3086 7.21875 10.5C7.21875 8.69006 8.69137 7.21875 10.5 7.21875C12.3086 7.21875 13.7812 8.69006 13.7812 10.5C13.7812 12.3086 12.3086 13.7812 10.5 13.7812Z" fill="#FAFAFA"/>
<path d="M16.1438 5.55581C16.5301 5.55581 16.8433 5.24261 16.8433 4.85625C16.8433 4.4699 16.5301 4.15669 16.1438 4.15669C15.7574 4.15669 15.4442 4.4699 15.4442 4.85625C15.4442 5.24261 15.7574 5.55581 16.1438 5.55581Z" fill="#FAFAFA"/>
</svg>
