<svg width="21" height="17" viewBox="0 0 21 17" fill="none" xmlns="http://www.w3.org/2000/svg">
<path d="M21 2.01254C20.2191 2.35385 19.3869 2.58008 18.5194 2.68992C19.4119 2.159 20.0931 1.32469 20.4133 0.319077C19.5812 0.813385 18.6624 1.16254 17.6833 1.35738C16.8932 0.519154 15.7671 0 14.5386 0C12.1551 0 10.2362 1.92754 10.2362 4.29054C10.2362 4.63054 10.2651 4.95746 10.3359 5.26869C6.75675 5.09477 3.58969 3.38562 1.46212 0.782C1.09069 1.42408 0.872813 2.159 0.872813 2.95015C0.872813 4.43569 1.64063 5.75254 2.78513 6.51492C2.09344 6.50185 1.41488 6.30177 0.84 5.98662C0.84 5.99969 0.84 6.01669 0.84 6.03369C0.84 8.11815 2.33231 9.84954 4.28925 10.2484C3.93881 10.3438 3.55687 10.3896 3.1605 10.3896C2.88488 10.3896 2.60663 10.3739 2.34544 10.3164C2.90325 12.0151 4.48612 13.2639 6.36825 13.3045C4.9035 14.4461 3.04369 15.1339 1.03031 15.1339C0.67725 15.1339 0.338625 15.1182 0 15.0751C1.90706 16.3004 4.16719 17 6.6045 17C14.5267 17 18.858 10.4615 18.858 4.794C18.858 4.60438 18.8514 4.42131 18.8423 4.23954C19.6967 3.63538 20.4146 2.88085 21 2.01254Z" fill="#FAFAFA"/>
</svg>
